<svg id="Layer_1" data-name="Layer 1" xmlns="http://www.w3.org/2000/svg" viewBox="0 0 424.14 71.03"><defs><style>.cls-1,.cls-4{fill:#f20925;}.cls-2,.cls-3{fill:#1a5bb4;}.cls-3{font-size:21px;font-family:Poppins-SemiBold, Poppins;font-weight:600;}.cls-4{font-size:14px;font-family:Poppins-MediumItalic, Poppins;font-weight:500;font-style:italic;}</style></defs><path class="cls-1" d="M38.05,211.3a5,5,0,0,0-1.16,4.3c1.88,9.11,9.73,3.94,11.24,2.18.07-.08.17-.14.24-.22,9.05-10.06,21.4-3.56,24.86,1.62,8.21,12.28-.06,21.53-.06,21.53l-4.09,4a1.92,1.92,0,0,0-.59,1.55c.4,4.49,2.11,6.92,3.22,8a1.62,1.62,0,0,0,1.92.29c16.51-9,14.32-27.14,14.32-27.14-5-25.33-25.64-25.4-27.23-25.37h-.2C49,200.87,41.15,207.86,38.05,211.3Z" transform="translate(-36.79 -201.92)"/><path class="cls-1" d="M51.12,245.07c-.43,8.58,3,13.08,3,13.08-12.54-2.88-16.29-9.24-17.12-11.08a3,3,0,0,1-.17-1c-.73-7.25,7.42-6.24,7.42-6.24C49.64,244.84,51.12,245.07,51.12,245.07Z" transform="translate(-36.79 -201.92)"/><path class="cls-2" d="M104.11,263.57a4.9,4.9,0,0,0,1.16-4.3c-1.88-9.12-9.72-3.94-11.24-2.18-.07.08-.16.14-.24.22-9.05,10.05-21.39,3.55-24.86-1.62-8.21-12.28.06-21.53.06-21.53l4.1-4a1.94,1.94,0,0,0,.58-1.55c-.39-4.49-2.11-6.91-3.21-8a1.61,1.61,0,0,0-1.93-.29c-16.5,9-14.31,27.14-14.31,27.14,5,25.32,25.64,25.4,27.22,25.37h.21C93.2,274,101,267,104.11,263.57Z" transform="translate(-36.79 -201.92)"/><path class="cls-2" d="M91.05,229.8c.42-8.58-3-13.09-3-13.09,12.55,2.89,16.29,9.24,17.13,11.08a3.1,3.1,0,0,1,.16,1c.74,7.24-7.41,6.23-7.41,6.23C92.53,230,91.05,229.8,91.05,229.8Z" transform="translate(-36.79 -201.92)"/><text class="cls-3" transform="translate(87.54 39.61)">COLLABORATIVE CONSULTATION</text><text class="cls-4" transform="translate(120.15 61.65)">...Working Together, Achieving More</text></svg>